<svg id="Layer_1" data-name="Layer 1" xmlns="http://www.w3.org/2000/svg" xmlns:xlink="http://www.w3.org/1999/xlink" viewBox="0 0 444.38 403.11"><defs><style>.cls-1{fill:url(#linear-gradient);}.cls-2{fill:url(#linear-gradient-2);}.cls-3{fill:url(#linear-gradient-3);}.cls-4{fill:url(#linear-gradient-4);}.cls-5{fill:url(#linear-gradient-5);}.cls-6{fill:url(#linear-gradient-6);}.cls-7{fill:#fad100;}.cls-8{fill:#a07222;}.cls-9{fill:url(#linear-gradient-7);}.cls-10{fill:url(#linear-gradient-8);}.cls-11{fill:url(#linear-gradient-9);}.cls-12{fill:url(#linear-gradient-10);}</style><linearGradient id="linear-gradient" x1="290.79" y1="282.59" x2="290.83" y2="282.59" gradientUnits="userSpaceOnUse"><stop offset="0.19" stop-color="#9b6f2a"/><stop offset="0.34" stop-color="#9e7229"/><stop offset="0.46" stop-color="#a87c24"/><stop offset="0.56" stop-color="#b88d1d"/><stop offset="0.67" stop-color="#cfa513"/><stop offset="0.77" stop-color="#ecc307"/><stop offset="0.81" stop-color="#fbd300"/></linearGradient><linearGradient id="linear-gradient-2" x1="289.84" y1="283.56" x2="289.88" y2="283.56" xlink:href="#linear-gradient"/><linearGradient id="linear-gradient-3" x1="144.46" y1="154.06" x2="144.5" y2="154.06" xlink:href="#linear-gradient"/><linearGradient id="linear-gradient-4" x1="318.14" y1="142.95" x2="318.16" y2="142.95" xlink:href="#linear-gradient"/><linearGradient id="linear-gradient-5" x1="166.05" y1="265.74" x2="166.07" y2="265.74" xlink:href="#linear-gradient"/><linearGradient id="linear-gradient-6" x1="223.22" y1="199.93" x2="350.11" y2="199.93" gradientUnits="userSpaceOnUse"><stop offset="0.19" stop-color="#9b6f2a"/><stop offset="0.28" stop-color="#a37826"/><stop offset="0.43" stop-color="#ba8f1c"/><stop offset="0.63" stop-color="#dfb60c"/><stop offset="0.75" stop-color="#fbd300"/></linearGradient><linearGradient id="linear-gradient-7" x1="162.69" y1="137.95" x2="163.17" y2="137.95" xlink:href="#linear-gradient"/><linearGradient id="linear-gradient-8" x1="315.19" y1="180.17" x2="315.69" y2="180.17" xlink:href="#linear-gradient"/><linearGradient id="linear-gradient-9" x1="279.28" y1="105.29" x2="279.75" y2="105.29" xlink:href="#linear-gradient"/><linearGradient id="linear-gradient-10" x1="288.92" y1="116.75" x2="291.37" y2="116.75" xlink:href="#linear-gradient"/></defs><path class="cls-1" d="M290.8,282.59s0,0,0,0l0,0Z"/><path class="cls-2" d="M289.84,283.58l0,0h0Z"/><path class="cls-3" d="M144.5,154l0,0h0Z"/><path class="cls-4" d="M318.14,142.94h0Z"/><path class="cls-5" d="M166.05,265.73h0l0,0Z"/><path class="cls-6" d="M349.9,170.66a6.77,6.77,0,0,0-2.49-5.2.41.41,0,0,0-.47-.38l-.08-.06a.91.91,0,0,0-.83-.56.51.51,0,0,0-.54-.39l.54.41h0a1.2,1.2,0,0,0,.17.21.44.44,0,0,1-.17-.21.74.74,0,0,1-.54-.42l0,0c-2.93-2.39-6-4.58-9.16-6.68h0c-2.3-1.83-4.58-3.67-6.91-5.46a25.78,25.78,0,0,0-3.61-2.71,37,37,0,0,0-5.28-4.32,3.8,3.8,0,0,0-1.82-1.49.54.54,0,0,0-.52-.44.51.51,0,0,0-.49-.44l.47.44h0v0h0l.52.45h0a.86.86,0,0,1-.53-.46,1.35,1.35,0,0,1-.48-.44l0,0a39.6,39.6,0,0,0-4.24-3.84c-2-1.81-4.1-3.55-6.15-5.32h0c-1-1-2-2-3-3q-3.53-3.32-7.09-6.6a66.73,66.73,0,0,0-5.76-5.77.74.74,0,0,1-.56-.48.78.78,0,0,1-.46-.48.65.65,0,0,1-.46-.5,1108.34,1108.34,0,0,0-1-1v-.06a3.59,3.59,0,0,0-1-1.29q-3.3-3.58-6.62-7.15c-.49-.52-1-1-1.52-1.48a1.47,1.47,0,0,1-.47-.49v0c-.48-.62-.94-1.27-1.45-1.87-1.85-2.18-3.72-4.34-5.59-6.51-.78-.89-1.58-1.77-2.38-2.65s-1.3-1.79-2-2.66c-1.75-2.16-3.51-4.3-5.27-6.45a2.54,2.54,0,0,0-1.06-1.37l0,0a1.49,1.49,0,0,1-.43-.5h0l.43.5a.57.57,0,0,0-.42-.51h0a26,26,0,0,0-2.74-3.87c-1.64-2.23-3.33-4.43-5-6.64a1.23,1.23,0,0,1-.44-.54.45.45,0,0,1-.18-.18,1.09,1.09,0,0,0,.19.18h0l.43.53A.58.58,0,0,0,253,72a1.05,1.05,0,0,0-.57-.86l0,0a3.25,3.25,0,0,1-.4-.5h0l.39.5a.54.54,0,0,0-.39-.51v0a6.71,6.71,0,0,0-.42-.85q-5-7.57-10.09-15.14a8.3,8.3,0,0,0-.6-.73,13.82,13.82,0,0,0-.63-1.28c-3.26-5.2-6.38-10.49-9.41-15.83a13.57,13.57,0,0,0-.8-1.18.54.54,0,0,1-.33-.29,1,1,0,0,0,.33.29,1.35,1.35,0,0,0-.56-1,1.16,1.16,0,0,0-.53-.95h0a51.37,51.37,0,0,0-3.83-7.17c-.41-.66-.52-1.72-1.63-1.8a4.54,4.54,0,0,0-.2,2.31q0,172.86,0,345.72c0,.72,0,1.44,0,2.16a.53.53,0,0,0,.22.37c.24.15.44,0,.58-.2a76.83,76.83,0,0,0,4.8-8h0a1.12,1.12,0,0,0,.56-.93.57.57,0,0,0,.35-.53h0l0,0a1.14,1.14,0,0,0,.54-.9c.28-.37.6-.73.85-1.13q4.56-7.4,9.09-14.82a13.62,13.62,0,0,0,.6-1.28v0a1.1,1.1,0,0,0,.55-.92.6.6,0,0,0,.36-.55l-.38.54,0,0h0a1,1,0,0,0-.19.16.51.51,0,0,1,.19-.16c.05-.25.25-.39.41-.56a2.13,2.13,0,0,0,.34-.33c2.88-4.84,5.78-9.68,8.63-14.55a6.65,6.65,0,0,0,1.14-2.85h0a1.77,1.77,0,0,0,.52-1.43,1.72,1.72,0,0,0,.42-1.46.92.92,0,0,0,.16-.31,3.77,3.77,0,0,0,.29-2.1,1.74,1.74,0,0,0,.06-1.23,2.57,2.57,0,0,0,.19-.76v0a4.19,4.19,0,0,0,0-.5q0-.45,0-.9c0-5.5.07-11,.08-16.49q0-18.21.06-36.44,0-69.9.05-139.79,0-1.08,0-2.16a.91.91,0,0,1,.44-.79h0a32.51,32.51,0,0,0,4.31,4.39h0a1.57,1.57,0,0,1,.47.49l-.47-.49a.57.57,0,0,0,.47.49c1.56,1.68,3.11,3.38,4.68,5.05,1.3,1.38,2.63,2.75,3.94,4.12a11.84,11.84,0,0,0,1,1.35,7.65,7.65,0,0,1,1.9,4.8c.1,1.2.09,2.4.1,3.6q0,26.82,0,53.66,0,31.39,0,62.78,0,18.45,0,36.9c0,.64,0,1.28,0,1.91,0,.22,0,.55.29.57a1,1,0,0,0,.63-.2,49.52,49.52,0,0,0,7.76-8.09c.56-.55,1.14-1.08,1.67-1.66,2.13-2.33,4.25-4.68,6.37-7,.52-.59,1-1.21,1.51-1.81v0a.61.61,0,0,0,.5-.5.57.57,0,0,0,.46-.49.6.6,0,0,0,.47-.49.57.57,0,0,0,.49-.48.61.61,0,0,0,.5-.47l-.5.45h0l0,0h0l-.46.45h0v0l-.45.45h0l0,0h0l-.42.45,0,0v0l-.48.48h0a.84.84,0,0,1,.49-.5,1,1,0,0,1,.47-.5,1.15,1.15,0,0,1,.47-.48,1.35,1.35,0,0,1,.47-.48,1.11,1.11,0,0,1,.52-.46c1.57-1.43,3.16-2.84,4.71-4.29a15.3,15.3,0,0,0,1.19-1.45,17,17,0,0,0,4.59-10.54,54,54,0,0,0,.16-6.23q-.15-13.31-.16-26.61,0-30.09,0-60.19c0-.64,0-1.28,0-1.92,0-.45.43-.62.85-.36,1.15.71,2.06,1.77,3.33,2.31a7,7,0,0,0,.66.67c2.81,2.15,5.64,4.29,8.46,6.43h0a1.69,1.69,0,0,1,.5.46l0,0a.43.43,0,0,0,.44.41,7.61,7.61,0,0,1,2.57,6.17c0,1,.1,1.91.1,2.87,0,6.86.09,13.72.09,20.57,0,4.87-.07,9.73-.08,14.6q0,12.19,0,24.41c0,1.67,0,3.34,0,5,0,.36-.08.82.57,1a46.18,46.18,0,0,0,5.4-4.09l0,0a1,1,0,0,1,.58-.42l-.58.42a.6.6,0,0,0,.58-.42,86.48,86.48,0,0,0,7.11-5.07,17.56,17.56,0,0,0,3.33-2.62v0a.86.86,0,0,1,.62-.44l-.62.44a.66.66,0,0,0,.62-.44h0a78.51,78.51,0,0,0,8.44-6.31l.07,0a.43.43,0,0,0,.47-.4.55.55,0,0,0,.54-.41.9.9,0,0,0,.8-.57l.11-.07a.43.43,0,0,0,.46-.37,3.91,3.91,0,0,0,2.51-3.72c0-1,.2-2.06.2-3.1q0-26.67-.09-53.34C350,173.21,350,171.93,349.9,170.66ZM229.43,366.06h0a1.69,1.69,0,0,1,.39-.53Zm23-39.35-.19.21a.76.76,0,0,1,.19-.21ZM346,235.63h0c-.18.14-.36.28-.53.43h0l0,0h0l-.37.32c.12-.11.24-.22.37-.32a.93.93,0,0,1,.56-.45.43.43,0,0,1,.2-.22A1.5,1.5,0,0,0,346,235.63Z"/><path class="cls-7" d="M404.88,199.1q-5.1-2.86-10.2-5.71a13.86,13.86,0,0,0-1.3-.58.84.84,0,0,0-.88-.45l0-.05a42.53,42.53,0,0,0-6.78-3.81.83.83,0,0,0-.86-.45h0l0,0a.91.91,0,0,0-.92-.5,1.43,1.43,0,0,0,.27.23.43.43,0,0,1-.27-.23l0-.06a43.63,43.63,0,0,0-6.74-3.77.92.92,0,0,0-.91-.48v0l0,0h0a.89.89,0,0,0-.92-.5,1.1,1.1,0,0,0,.23.25.47.47,0,0,1-.23-.25l0-.07h0a4.6,4.6,0,0,0-.54-.45l-10.23-5.72a4.4,4.4,0,0,0-.85-.4c-.34-.09-.66,0-.68.42-.05.63-.06,1.27-.06,1.91v43.29c0,.56,0,1.12,0,1.68s.37.7.82.45c2-1.11,4.06-2.21,6.06-3.36a46,46,0,0,0,5.34-3.13l.13-.06a1.5,1.5,0,0,1,.51-.35.5.5,0,0,1,.21-.22.88.88,0,0,0-.21.22h0l-.51.35a.4.4,0,0,0,.51-.33.91.91,0,0,0,.92-.51h0a.93.93,0,0,0,.94-.48,33.34,33.34,0,0,0,5.81-3.23l0-.06a.47.47,0,0,1,.33-.34,1.07,1.07,0,0,0-.33.34.93.93,0,0,0,.92-.52h0a.61.61,0,0,1,.22-.23,1.61,1.61,0,0,0-.22.23,1,1,0,0,0,1-.5A43.49,43.49,0,0,0,392,207.9l0-.07a.5.5,0,0,1,.29-.28,1.28,1.28,0,0,0-.29.28,1,1,0,0,0,1-.5,2.07,2.07,0,0,0,.46-.11l11.89-6.61c.28-.16.55-.32.59-.7C405.75,199.46,405.28,199.32,404.88,199.1Z"/><path class="cls-8" d="M207,185.13c-3.59,0-7.18.06-10.77.09a35.15,35.15,0,0,0-6.24,0,7.68,7.68,0,0,0-1-.11H152.4c-1.81,0-1.92.1-1.92,1.9q0,13.65,0,27.31c0,2.12,0,2.15,2.14,2.16q9,0,18,0c.39,0,.79-.07,1.19-.11a22.68,22.68,0,0,0,4.66,0,4.48,4.48,0,0,1,.35,2.34q0,27.21,0,54.42c0,.62.28,1.52-.31,1.77-.77.32-1.1-.69-1.61-1.12s-.76-.82-1.16-1.21a72,72,0,0,0-7.1-6.42,1.28,1.28,0,0,1-.56-.47,1.65,1.65,0,0,1-.48-.47l.48.47h0l.54.45a.7.7,0,0,0-.55-.46.61.61,0,0,0-.49-.48.54.54,0,0,0-.48-.45l0,0h0c-.43-.46-.83-1-1.29-1.37q-6-5.44-12-10.88c-1-.9-2-1.74-3.06-2.61a13.57,13.57,0,0,0-1-1.06q-5.65-5.15-11.32-10.28c-.47-.42-1-.78-1.5-1.17a1.19,1.19,0,0,1-.59-.47,1.72,1.72,0,0,1-.47-.46l.48.46h0l.57.46a.75.75,0,0,0-.56-.46.65.65,0,0,0-.5-.48.61.61,0,0,0-.48-.46h0a.55.55,0,0,0-.46-.44l0,0h0c-.32-.35-.6-.73-.95-1q-8-7.31-16.1-14.58c-.82-.74-1.7-1.42-2.55-2.13-.5-.51-1-1.06-1.49-1.54q-7.69-7-15.44-13.92c-.88-.8-1.82-1.53-2.74-2.29a1,1,0,0,1-.5-.69h0a.77.77,0,0,1,.63-.67,17.85,17.85,0,0,0,3.7-3.29.83.83,0,0,1,.62-.55l.34-.29h0a3.6,3.6,0,0,0,.6-.38q6.24-5.47,12.45-11a1.8,1.8,0,0,0,.27-.39l.08-.06a2.35,2.35,0,0,0,.43-.4l.06,0a.57.57,0,0,0,.47-.43h0a1.49,1.49,0,0,1,.52-.45,59.43,59.43,0,0,0,5.8-4.93c2.68-2.35,5.48-4.57,8-7.13.38-.28.79-.53,1.15-.84q7.22-6.28,14.42-12.6c.47-.41.88-.9,1.32-1.36h0a1.32,1.32,0,0,1,.48-.46.93.93,0,0,1,.62-.47l-.59.45h0l0,0h0l-.48.46a.59.59,0,0,0,.5-.47.79.79,0,0,0,.6-.46c.39-.28.8-.52,1.16-.83q6.48-5.66,12.93-11.34a16.29,16.29,0,0,0,1.15-1.2v-.06a.61.61,0,0,0,.52-.49.43.43,0,0,0,0,.07,2.25,2.25,0,0,0,1.32-1.08l.08-.06a.5.5,0,0,0,.43-.4l.05,0c.15-.15.31-.3.48-.44h0a1.65,1.65,0,0,1,.48-.47,1.49,1.49,0,0,1,.5-.47,1.08,1.08,0,0,1,.5-.47.85.85,0,0,1,.52-.48h0l-.51.49s0,0,0,0h0l0,0v0l-.48.45v0l0,0h0l-.48.45h0l-.48.47a.61.61,0,0,0,.48-.46.62.62,0,0,0,.5-.46.58.58,0,0,0,.49-.46.62.62,0,0,0,.49-.43,1,1,0,0,0,.8-.61,69.69,69.69,0,0,0,7.42-6.63c.44-.34.87-.7,1.34-1,.62-.4,1-1.53,1.85-1.11.61.3.25,1.31.29,2,0,.48,0,1,0,1.44v36.67c0,2.51,0,2.52,2.52,2.53h26.37c.56,0,1.12,0,1.67-.06a.87.87,0,0,0,.86-.95q0-1.2,0-2.4V28.28c0-.72,0-1.44,0-2.16,0-.23,0-.48-.31-.59a1.14,1.14,0,0,0-.6.94c-.26.39-.55.78-.78,1.19q-3.94,6.85-7.85,13.71a13.62,13.62,0,0,0-.6,1.29,9.33,9.33,0,0,0-.73.93q-5.24,8.61-10.83,17a5.94,5.94,0,0,0-.41.84,10.66,10.66,0,0,0-.77.89c-4.21,6.16-8.53,12.25-13.05,18.18a9.4,9.4,0,0,0-.6,1,3.42,3.42,0,0,0-.53.47q-5.55,6.9-11.08,13.82a4.77,4.77,0,0,0-.36.62,13.45,13.45,0,0,0-1,1q-6.91,8.16-14.26,16c-.38.4-.7.85-1,1.28-.64.6-1.29,1.17-1.91,1.79-3.32,3.31-6.62,6.64-10,10-1.8,1.79-3.62,3.56-5.44,5.34-.49.39-1,.75-1.48,1.18q-6.36,5.88-13,11.47c-.48.41-.91.87-1.36,1.31-2.28,1.81-4.57,3.59-6.83,5.42a22.76,22.76,0,0,0-3.23,2.73h0a96.44,96.44,0,0,0-8.15,6.23,13.65,13.65,0,0,0-1.22.74c-5.15,3.78-10.35,7.47-15.66,11a10.78,10.78,0,0,0-.9.77c-.69.39-1.39.77-2.06,1.2-2.49,1.59-5,3.18-7.44,4.81a25.45,25.45,0,0,0-3.45,2.14,9.63,9.63,0,0,0-1.09.46q-6.76,3.76-13.51,7.56a8.36,8.36,0,0,0-.76.57,5.35,5.35,0,0,0-.67.24l-17.5,9.82c-.25.14-.61.27-.45.85.23.15.54.39.87.57q8.46,4.72,16.9,9.43a6.81,6.81,0,0,0,.89.34c.52.35,1,.72,1.58,1,3.38,1.93,6.81,3.76,10.1,5.84a24,24,0,0,0,4.12,2.36c.58.41,1.13.84,1.72,1.22q4.48,2.87,9,5.71c.59.38,1.22.71,1.83,1.06l.09.05a1.16,1.16,0,0,0,.83.54c.3.25.58.54.9.76l13.9,9.73a11.52,11.52,0,0,0,1,.57,10.84,10.84,0,0,0,.85.81q9,6.66,17.62,13.78a12.12,12.12,0,0,0,1.18.79c.45.45.87.92,1.36,1.33q8.58,7.23,16.75,14.94c.35.32.75.59,1.12.88h0c.54.58,1.06,1.18,1.62,1.74q5.24,5.25,10.49,10.47a27.54,27.54,0,0,0,3.22,3.17c.35.44.66.89,1,1.3q7,7.51,13.58,15.34c.51.6,1.09,1.15,1.63,1.72a8.39,8.39,0,0,0,.64,1q6.21,7.51,12,15.33a9.26,9.26,0,0,0,.81.85,30.46,30.46,0,0,0,3,4.29,65.87,65.87,0,0,0,4.23,5.75c.23.41.43.85.69,1.24,4.23,6.11,8.27,12.34,12.18,18.65.29.47.66.9,1,1.34s.45,1,.73,1.49q5,8.19,9.54,16.59c.26.49.6.93.9,1.4.1.44.19.89,1,1V188.35c0-.63,0-1.27,0-1.91C208.23,185.36,208.06,185.13,207,185.13Zm-41.88-49.24,0,0a.4.4,0,0,1,.16-.18A1.45,1.45,0,0,0,165.15,135.89Zm-4.81,4.25a.88.88,0,0,1,.51-.47h0l-.51.49Zm21.52,45.56v0H182Z"/><path class="cls-9" d="M163.17,137.73l-.48.44A.55.55,0,0,0,163.17,137.73Z"/><path class="cls-10" d="M315.69,180.4l-.5-.46A.52.52,0,0,0,315.69,180.4Z"/><path class="cls-11" d="M279.28,105.05l.47.49A.55.55,0,0,0,279.28,105.05Z"/><path class="cls-12" d="M289.89,116.49h0s0,0,0,0l0,0,.43.46h0s0,0,0,0l0,0,.45.45h0v0s0,0,0,0c.19.16.37.31.54.47a.66.66,0,0,0-.52-.48.57.57,0,0,0-.48-.48.59.59,0,0,0-.45-.5,23.52,23.52,0,0,0-1-1l.49.48h0s0,0,0,0l0,0C289.6,116.19,289.74,116.34,289.89,116.49Z"/></svg>